HIERARCHY
ROOT Hips
{
  OFFSET 0.61027 101.635 1.07464
  CHANNELS 6 Xposition Yposition Zposition Zrotation Xrotation Yrotation
  JOINT Spine
  {
    OFFSET 0 10.1816 0.1315
    CHANNELS 6 Xposition Yposition Zposition Zrotation Xrotation Yrotation
    JOINT Spine1
    {
      OFFSET 0 10.0835 -1.0008
      CHANNELS 6 Xposition Yposition Zposition Zrotation Xrotation Yrotation
      JOINT Spine2
      {
        OFFSET 0 9.1 -1.3734
        CHANNELS 6 Xposition Yposition Zposition Zrotation Xrotation Yrotation
        JOINT Neck
        {
          OFFSET 0 16.6717 -2.5162
          CHANNELS 6 Xposition Yposition Zposition Zrotation Xrotation Yrotation
          JOINT Head
          {
            OFFSET 0 9.6179 1.685
            CHANNELS 6 Xposition Yposition Zposition Zrotation Xrotation Yrotation
            JOINT HeadTop_End
            {
              OFFSET 0 17.8152 2.585
              CHANNELS 6 Xposition Yposition Zposition Zrotation Xrotation Yrotation
              End Site
              {
                OFFSET 0 0 0
              }
            }
            JOINT LeftEye
            {
              OFFSET 3.0676 6.4095 9.2836
              CHANNELS 6 Xposition Yposition Zposition Zrotation Xrotation Yrotation
              End Site
              {
                OFFSET 0 0 0
              }
            }
            JOINT RightEye
            {
              OFFSET -3.0676 6.4095 9.2835
              CHANNELS 6 Xposition Yposition Zposition Zrotation Xrotation Yrotation
              End Site
              {
                OFFSET 0 0 0
              }
            }
          }
        }
        JOINT LeftShoulder
        {
          OFFSET 4.5704 10.946 -2.628
          CHANNELS 6 Xposition Yposition Zposition Zrotation Xrotation Yrotation
          JOINT LeftArm
          {
            OFFSET 10.5924 -0.5246 -2.2321
            CHANNELS 6 Xposition Yposition Zposition Zrotation Xrotation Yrotation
            JOINT LeftForeArm
            {
              OFFSET 27.8415 -0.0001 0
              CHANNELS 6 Xposition Yposition Zposition Zrotation Xrotation Yrotation
              JOINT LeftHand
              {
                OFFSET 28.3288 0 0
                CHANNELS 6 Xposition Yposition Zposition Zrotation Xrotation Yrotation
                JOINT LeftHandThumb1
                {
                  OFFSET 2.4661 -1.575 2.6824
                  CHANNELS 6 Xposition Yposition Zposition Zrotation Xrotation Yrotation
                  JOINT LeftHandThumb2
                  {
                    OFFSET 3.2298 -1.8647 1.8647
                    CHANNELS 6 Xposition Yposition Zposition Zrotation Xrotation Yrotation
                    JOINT LeftHandThumb3
                    {
                      OFFSET 2.6526 -1.5315 1.5315
                      CHANNELS 6 Xposition Yposition Zposition Zrotation Xrotation Yrotation
                      End Site
                      {
                        OFFSET 1.9546 -1.1285 1.1285
                      }
                    }
                  }
                }
                JOINT LeftHandIndex1
                {
                  OFFSET 9.1093 -0.5171 2.2601
                  CHANNELS 6 Xposition Yposition Zposition Zrotation Xrotation Yrotation
                  JOINT LeftHandIndex2
                  {
                    OFFSET 3.6764 0 0
                    CHANNELS 6 Xposition Yposition Zposition Zrotation Xrotation Yrotation
                    JOINT LeftHandIndex3
                    {
                      OFFSET 2.8831 0 0
                      CHANNELS 6 Xposition Yposition Zposition Zrotation Xrotation Yrotation
                      End Site
                      {
                        OFFSET 2.3927 0 0
                      }
                    }
                  }
                }
                JOINT LeftHandMiddle1
                {
                  OFFSET 9.5334 0 0
                  CHANNELS 6 Xposition Yposition Zposition Zrotation Xrotation Yrotation
                  JOINT LeftHandMiddle2
                  {
                    OFFSET 3.6982 0 0
                    CHANNELS 6 Xposition Yposition Zposition Zrotation Xrotation Yrotation
                    JOINT LeftHandMiddle3
                    {
                      OFFSET 2.9509 0 0
                      CHANNELS 6 Xposition Yposition Zposition Zrotation Xrotation Yrotation
                      End Site
                      {
                        OFFSET 2.8339 0 0
                      }
                    }
                  }
                }
                JOINT LeftHandRing1
                {
                  OFFSET 9.1045 -0.0439 -1.8651
                  CHANNELS 6 Xposition Yposition Zposition Zrotation Xrotation Yrotation
                  JOINT LeftHandRing2
                  {
                    OFFSET 3.154 0 0
                    CHANNELS 6 Xposition Yposition Zposition Zrotation Xrotation Yrotation
                    JOINT LeftHandRing3
                    {
                      OFFSET 2.9377 0 0
                      CHANNELS 6 Xposition Yposition Zposition Zrotation Xrotation Yrotation
                      End Site
                      {
                        OFFSET 2.6475 0 0
                      }
                    }
                  }
                }
                JOINT LeftHandPinky1
                {
                  OFFSET 8.0778 -0.4887 -3.8061
                  CHANNELS 6 Xposition Yposition Zposition Zrotation Xrotation Yrotation
                  JOINT LeftHandPinky2
                  {
                    OFFSET 3.6 0 0
                    CHANNELS 6 Xposition Yposition Zposition Zrotation Xrotation Yrotation
                    JOINT LeftHandPinky3
                    {
                      OFFSET 2.1142 0 0
                      CHANNELS 6 Xposition Yposition Zposition Zrotation Xrotation Yrotation
                      End Site
                      {
                        OFFSET 1.9757 0 0
                      }
                    }
                  }
                }
              }
            }
          }
        }
        JOINT RightShoulder
        {
          OFFSET -4.57 10.9462 -2.628
          CHANNELS 6 Xposition Yposition Zposition Zrotation Xrotation Yrotation
          JOINT RightArm
          {
            OFFSET -10.5928 -0.5248 -2.2321
            CHANNELS 6 Xposition Yposition Zposition Zrotation Xrotation Yrotation
            JOINT RightForeArm
            {
              OFFSET -27.8415 0 0
              CHANNELS 6 Xposition Yposition Zposition Zrotation Xrotation Yrotation
              JOINT RightHand
              {
                OFFSET -28.3288 0 0.0001
                CHANNELS 6 Xposition Yposition Zposition Zrotation Xrotation Yrotation
                JOINT RightHandPinky1
                {
                  OFFSET -8.0767 -0.4885 -3.806
                  CHANNELS 6 Xposition Yposition Zposition Zrotation Xrotation Yrotation
                  JOINT RightHandPinky2
                  {
                    OFFSET -3.6 0 0.0001
                    CHANNELS 6 Xposition Yposition Zposition Zrotation Xrotation Yrotation
                    JOINT RightHandPinky3
                    {
                      OFFSET -2.1142 0 0
                      CHANNELS 6 Xposition Yposition Zposition Zrotation Xrotation Yrotation
                      End Site
                      {
                        OFFSET -1.9757 0 0
                      }
                    }
                  }
                }
                JOINT RightHandRing1
                {
                  OFFSET -9.1036 -0.0439 -1.8651
                  CHANNELS 6 Xposition Yposition Zposition Zrotation Xrotation Yrotation
                  JOINT RightHandRing2
                  {
                    OFFSET -3.154 0 0
                    CHANNELS 6 Xposition Yposition Zposition Zrotation Xrotation Yrotation
                    JOINT RightHandRing3
                    {
                      OFFSET -2.9377 0 0
                      CHANNELS 6 Xposition Yposition Zposition Zrotation Xrotation Yrotation
                      End Site
                      {
                        OFFSET -2.6475 0 0
                      }
                    }
                  }
                }
                JOINT RightHandMiddle1
                {
                  OFFSET -9.5325 0 0
                  CHANNELS 6 Xposition Yposition Zposition Zrotation Xrotation Yrotation
                  JOINT RightHandMiddle2
                  {
                    OFFSET -3.6982 0 0
                    CHANNELS 6 Xposition Yposition Zposition Zrotation Xrotation Yrotation
                    JOINT RightHandMiddle3
                    {
                      OFFSET -2.9509 0 0
                      CHANNELS 6 Xposition Yposition Zposition Zrotation Xrotation Yrotation
                      End Site
                      {
                        OFFSET -2.8339 0 0.0001
                      }
                    }
                  }
                }
                JOINT RightHandIndex1
                {
                  OFFSET -9.1083 -0.5168 2.2601
                  CHANNELS 6 Xposition Yposition Zposition Zrotation Xrotation Yrotation
                  JOINT RightHandIndex2
                  {
                    OFFSET -3.6764 0 0
                    CHANNELS 6 Xposition Yposition Zposition Zrotation Xrotation Yrotation
                    JOINT RightHandIndex3
                    {
                      OFFSET -2.8831 0 0
                      CHANNELS 6 Xposition Yposition Zposition Zrotation Xrotation Yrotation
                      End Site
                      {
                        OFFSET -2.3927 0 0
                      }
                    }
                  }
                }
                JOINT RightHandThumb1
                {
                  OFFSET -2.4648 -1.5727 2.6826
                  CHANNELS 6 Xposition Yposition Zposition Zrotation Xrotation Yrotation
                  JOINT RightHandThumb2
                  {
                    OFFSET -3.2298 -1.8647 1.8647
                    CHANNELS 6 Xposition Yposition Zposition Zrotation Xrotation Yrotation
                    JOINT RightHandThumb3
                    {
                      OFFSET -2.6526 -1.5314 1.5314
                      CHANNELS 6 Xposition Yposition Zposition Zrotation Xrotation Yrotation
                      End Site
                      {
                        OFFSET -1.9546 -1.1285 1.1285
                      }
                    }
                  }
                }
              }
            }
          }
        }
      }
    }
  }
  JOINT LeftUpLeg
  {
    OFFSET 8.2078 -6.7517 -1.5996
    CHANNELS 6 Xposition Yposition Zposition Zrotation Xrotation Yrotation
    JOINT LeftLeg
    {
      OFFSET 0 -44.3705 0.2846
      CHANNELS 6 Xposition Yposition Zposition Zrotation Xrotation Yrotation
      JOINT LeftFoot
      {
        OFFSET 0 -44.4279 -2.9822
        CHANNELS 6 Xposition Yposition Zposition Zrotation Xrotation Yrotation
        JOINT LeftToeBase
        {
          OFFSET 0 -8.7287 10.7106
          CHANNELS 6 Xposition Yposition Zposition Zrotation Xrotation Yrotation
          End Site
          {
            OFFSET 0 -0.0007 9.2781
          }
        }
      }
    }
  }
  JOINT RightUpLeg
  {
    OFFSET -8.2078 -6.7517 -1.5996
    CHANNELS 6 Xposition Yposition Zposition Zrotation Xrotation Yrotation
    JOINT RightLeg
    {
      OFFSET 0 -44.3705 0.2862
      CHANNELS 6 Xposition Yposition Zposition Zrotation Xrotation Yrotation
      JOINT RightFoot
      {
        OFFSET 0 -44.4277 -2.9838
        CHANNELS 6 Xposition Yposition Zposition Zrotation Xrotation Yrotation
        JOINT RightToeBase
        {
          OFFSET 0 -8.7287 10.7106
          CHANNELS 6 Xposition Yposition Zposition Zrotation Xrotation Yrotation
          End Site
          {
            OFFSET 0 -0.0007 9.2781
          }
        }
      }
    }
  }
}
MOTION
Frames:	4
Frame Time:	0.0333333
52.1066 100.58 -2.01575 5.82891 -3.22126 28.9461 -7.10543e-015 10.1816 0.1315 -1.52033 11.432 -7.93926 0 10.0835 -1.0008 0.33834 3.90161 -2.08799 0 9.1 -1.3734 0.346139 3.90105 -2.08222 0 16.6717 -2.5162 -0.243535 -3.0439 -2.55217 -7.10543e-015 9.6179 1.685 5.48004 -9.5065 -14.422 0 17.8152 2.585 -2.85753e-016 -3.97569e-016 -1.98785e-016 3.0676 6.4095 9.2836 -2.85753e-016 -3.97569e-016 -1.98785e-016 -3.0676 6.4095 9.2835 -2.85753e-016 -3.97569e-016 -1.98785e-016 4.5704 10.946 -2.628 -13.8713 4.4097 -4.06794 10.5924 -0.5246 -2.2321 -52.7344 18.0238 -26.8523 27.8415 -0.0001 -3.55271e-015 -0.000200124 -1.34052e-006 -11.7844 28.3288 1.42109e-014 -8.88178e-016 -2.46545 40.9057 0.382408 2.4661 -1.575 2.6824 3.38477 -1.3001 1.82798 3.2298 -1.8647 1.8647 1.64376 6.9769 16.236 2.6526 -1.5315 1.5315 13.0168 -7.6001 0.373474 9.1093 -0.5171 2.2601 -17.5514 -0.587016 0.0799656 3.6764 -7.10543e-015 0 -26.294 -0.605109 2.59025 2.8831 -3.55271e-015 7.10543e-015 -23.5169 -0.485699 2.33306 9.5334 1.42109e-014 0 -23.9933 -1.40896 4.56341 3.6982 7.10543e-015 0 -26.3238 -0.606458 2.59298 2.9509 -2.66454e-015 0 -23.224 -0.473838 2.30561 9.1045 -0.0439 -1.8651 -23.5063 -1.35235 9.02728 3.154 7.10543e-015 0 -26.4506 -0.612211 2.60458 2.9377 -5.32907e-015 0 -23.0831 -0.468181 2.29238 8.0778 -0.4887 -3.8061 -23.159 -2.63936 11.0549 3.6 7.10543e-015 -1.42109e-014 -26.4655 -0.612885 2.60593 2.1142 0 -1.42109e-014 -29.3832 -0.75242 2.86922 -4.57 10.9462 -2.628 3.15219 3.23567 0.15839 -10.5928 -0.5248 -2.2321 73.3013 -18.793 6.33991 -27.8415 8.88178e-016 -1.77636e-015 1.30064e-005 1.0272e-006 15.5475 -28.3288 4.44089e-015 0.0001 0.22246 25.0827 -4.98628 -8.0767 -0.4885 -3.806 22.6621 -2.49817 -10.4543 -3.6 3.55271e-015 0.0001 26.5193 -0.487717 -2.07109 -2.1142 7.10543e-015 0 29.4438 -0.599617 -2.28179 -9.1036 -0.0439 -1.8651 22.9543 -1.20068 -8.42577 -3.154 7.10543e-015 -1.77636e-015 26.5045 -0.487893 -2.07143 -2.9377 0 -1.77636e-015 23.1295 -0.373105 -1.8232 -9.5325 1.77636e-015 0 23.3495 -1.24211 -3.95597 -3.6982 0 -4.44089e-016 26.3774 -0.483311 -2.06219 -2.9509 0 -2.22045e-015 23.2707 -0.377608 -1.83574 -9.1083 -0.5168 2.2601 16.8059 -0.47875 0.405504 -3.6764 -1.77636e-015 -8.88178e-016 26.3475 -0.482234 -2.06002 -2.8831 0 -1.77636e-015 23.5642 -0.387069 -1.85552 -2.4648 -1.5727 2.6826 -2.77512 -2.4589 0.133458 -3.2298 -1.8647 1.8647 -2.31613 7.57112 -17.9514 -2.6526 -1.5314 1.5314 -14.5098 -4.30707 -5.84443 8.2078 -6.7517 -1.5996 -9.49088 -3.53411 8.64609 0 -44.3705 0.2846 0.100712 24.3079 6.55424 -7.10543e-015 -44.4279 -2.9822 4.66882 -15.1984 0.191808 7.10543e-015 -8.7287 10.7106 1.55955e-006 -0.983381 7.40932e-006 -8.2078 -6.7517 -1.5996 -6.57589 -34.3234 -2.5669 -7.10543e-015 -44.3705 0.2862 -0.763142 54.1971 -2.41684 -7.10543e-015 -44.4277 -2.9838 1.90537 6.82005 -1.56885 0 -8.7287 10.7106 -2.55512e-006 -0.854791 1.35229e-006 
53.7831 100.437 -1.96413 5.94423 -2.97313 30.562 0 10.1816 0.1315 -1.2203 11.253 -8.83783 0 10.0835 -1.0008 0.322945 3.91278 -2.31229 -7.10543e-015 9.1 -1.3734 0.33032 3.91077 -2.30854 0 16.6717 -2.5162 -0.403409 -3.08932 -2.57699 0 9.6179 1.685 5.11662 -9.70875 -14.7933 -1.42109e-014 17.8152 2.585 -2.54693e-016 0 -0 3.0676 6.4095 9.2836 -2.54693e-016 0 -0 -3.0676 6.4095 9.2835 -2.54693e-016 0 -0 4.5704 10.946 -2.628 -13.4391 4.44795 -4.80845 10.5924 -0.5246 -2.2321 -52.198 19.4086 -28.2918 27.8415 -0.0001 7.10543e-015 -0.00021271 7.55113e-007 -12.488 28.3288 0 8.88178e-016 -2.85078 39.7161 0.757028 2.4661 -1.575 2.6824 3.38477 -1.3001 1.82798 3.2298 -1.8647 1.8647 1.64376 6.9769 16.236 2.6526 -1.5315 1.5315 13.0168 -7.6001 0.373474 9.1093 -0.5171 2.2601 -17.5514 -0.587016 0.0799656 3.6764 0 0 -26.294 -0.605109 2.59025 2.8831 -3.55271e-015 7.10543e-015 -23.5169 -0.485699 2.33306 9.5334 0 -7.10543e-015 -23.9933 -1.40896 4.56341 3.6982 -7.10543e-015 1.42109e-014 -26.3238 -0.606458 2.59298 2.9509 -2.66454e-015 0 -23.224 -0.473838 2.30561 9.1045 -0.0439 -1.8651 -23.5063 -1.35235 9.02728 3.154 0 0 -26.4506 -0.612211 2.60458 2.9377 -3.55271e-015 -1.42109e-014 -23.0831 -0.468181 2.29238 8.0778 -0.4887 -3.8061 -23.159 -2.63936 11.0549 3.6 0 0 -26.4655 -0.612885 2.60593 2.1142 -5.32907e-015 0 -29.3832 -0.75242 2.86922 -4.57 10.9462 -2.628 2.76288 3.20188 -0.297465 -10.5928 -0.5248 -2.2321 73.8381 -19.5884 5.23469 -27.8415 1.77636e-015 0 7.03779e-006 3.34198e-006 15.53 -28.3288 3.55271e-015 0.0001 0.565703 27.0985 -5.30324 -8.0767 -0.4885 -3.806 22.6621 -2.49817 -10.4543 -3.6 3.55271e-015 0.0001 26.5193 -0.487717 -2.07109 -2.1142 0 0 29.4438 -0.599617 -2.28179 -9.1036 -0.0439 -1.8651 22.9543 -1.20068 -8.42577 -3.154 0 1.77636e-015 26.5045 -0.487893 -2.07143 -2.9377 0 0 23.1295 -0.373105 -1.8232 -9.5325 1.77636e-015 -4.44089e-016 23.3495 -1.24211 -3.95597 -3.6982 3.55271e-015 -4.44089e-016 26.3774 -0.483311 -2.06219 -2.9509 7.10543e-015 8.88178e-016 23.2707 -0.377608 -1.83574 -9.1083 -0.5168 2.2601 16.8059 -0.47875 0.405504 -3.6764 0 0 26.3475 -0.482234 -2.06002 -2.8831 0 0 23.5642 -0.387069 -1.85552 -2.4648 -1.5727 2.6826 -2.77512 -2.4589 0.133458 -3.2298 -1.8647 1.8647 -2.31613 7.57112 -17.9514 -2.6526 -1.5314 1.5314 -14.5098 -4.30707 -5.84443 8.2078 -6.7517 -1.5996 -10.576 -2.6286 8.27025 -7.10543e-015 -44.3705 0.2846 0.155362 23.584 5.54255 -7.10543e-015 -44.4279 -2.9822 5.74617 -15.4611 0.306076 0 -8.7287 10.7106 -9.94813e-007 -0.988079 -3.37922e-006 -8.2078 -6.7517 -1.5996 -3.68791 -34.818 -2.32308 -7.10543e-015 -44.3705 0.2862 -0.722802 52.5186 -1.99479 -7.10543e-015 -44.4277 -2.9838 2.53 6.23902 -2.0501 0 -8.7287 10.7106 -4.77891e-007 -0.860909 4.13779e-006 
55.5342 100.223 -1.88656 6.07577 -2.57865 32.2171 -7.10543e-015 10.1816 0.1315 -0.887637 10.9499 -9.64078 0 10.0835 -1.0008 0.310529 3.8864 -2.51542 -7.10543e-015 9.1 -1.3734 0.3169 3.88253 -2.51372 0 16.6717 -2.5162 -0.570864 -3.15739 -2.61178 7.10543e-015 9.6179 1.685 4.77148 -9.8177 -15.2068 0 17.8152 2.585 1.24862e-015 -3.97569e-016 -0 3.0676 6.4095 9.2836 1.24862e-015 -3.97569e-016 -0 -3.0676 6.4095 9.2835 1.24862e-015 -3.97569e-016 -0 4.5704 10.946 -2.628 -13.1535 4.46515 -5.25989 10.5924 -0.5246 -2.2321 -51.7823 21.11 -29.8099 27.8415 -0.0001 -3.55271e-015 -0.000220777 -2.89035e-006 -13.0744 28.3288 1.42109e-014 1.77636e-015 -2.71445 38.8176 0.51917 2.4661 -1.575 2.6824 3.38477 -1.3001 1.82798 3.2298 -1.8647 1.8647 1.64376 6.9769 16.236 2.6526 -1.5315 1.5315 13.0168 -7.6001 0.373474 9.1093 -0.5171 2.2601 -17.5514 -0.587016 0.0799656 3.6764 -7.10543e-015 7.10543e-015 -26.294 -0.605109 2.59025 2.8831 -1.77636e-015 7.10543e-015 -23.5169 -0.485699 2.33306 9.5334 0 7.10543e-015 -23.9933 -1.40896 4.56341 3.6982 0 1.42109e-014 -26.3238 -0.606458 2.59298 2.9509 3.55271e-015 0 -23.224 -0.473838 2.30561 9.1045 -0.0439 -1.8651 -23.5063 -1.35235 9.02728 3.154 0 1.42109e-014 -26.4506 -0.612211 2.60458 2.9377 -5.32907e-015 0 -23.0831 -0.468181 2.29238 8.0778 -0.4887 -3.8061 -23.159 -2.63936 11.0549 3.6 -7.10543e-015 -1.42109e-014 -26.4655 -0.612885 2.60593 2.1142 0 1.42109e-014 -29.3832 -0.75242 2.86922 -4.57 10.9462 -2.628 2.34212 3.16951 -0.666723 -10.5928 -0.5248 -2.2321 74.4741 -19.9169 4.3185 -27.8415 -2.22045e-015 0 8.205e-006 -1.09567e-006 15.441 -28.3288 -6.66134e-015 0.0001 0.82632 28.3813 -5.38877 -8.0767 -0.4885 -3.806 22.6621 -2.49817 -10.4543 -3.6 -3.55271e-015 0.0001 26.5193 -0.487717 -2.07109 -2.1142 1.42109e-014 0 29.4438 -0.599617 -2.28179 -9.1036 -0.0439 -1.8651 22.9543 -1.20068 -8.42577 -3.154 0 0 26.5045 -0.487893 -2.07143 -2.9377 0 -1.77636e-015 23.1295 -0.373105 -1.8232 -9.5325 8.88178e-016 -6.66134e-016 23.3495 -1.24211 -3.95597 -3.6982 0 -1.77636e-015 26.3774 -0.483311 -2.06219 -2.9509 0 -1.77636e-015 23.2707 -0.377608 -1.83574 -9.1083 -0.5168 2.2601 16.8059 -0.47875 0.405504 -3.6764 -3.55271e-015 -1.77636e-015 26.3475 -0.482234 -2.06002 -2.8831 0 0 23.5642 -0.387069 -1.85552 -2.4648 -1.5727 2.6826 -2.77512 -2.4589 0.133458 -3.2298 -1.8647 1.8647 -2.31613 7.57112 -17.9514 -2.6526 -1.5314 1.5314 -14.5098 -4.30707 -5.84443 8.2078 -6.7517 -1.5996 -11.7513 -1.77285 7.92367 0 -44.3705 0.2846 0.224188 22.9248 4.46174 0 -44.4279 -2.9822 6.83855 -15.787 0.427179 -7.10543e-015 -8.7287 10.7106 1.22686e-006 -0.994261 -9.34331e-006 -8.2078 -6.7517 -1.5996 -0.983729 -34.7014 -2.22363 0 -44.3705 0.2862 -0.786644 50.1594 -1.72899 0 -44.4277 -2.9838 3.55716 5.25956 -3.78104 0 -8.7287 10.7106 -2.08399e-006 -0.785024 1.19201e-007 
57.3271 99.966 -1.83086 6.1354 -2.03855 33.7197 0 10.1816 0.1315 -0.522146 10.516 -10.17 0 10.0835 -1.0008 0.294769 3.80461 -2.6548 -7.10543e-015 9.1 -1.3734 0.299816 3.79861 -2.65495 7.10543e-015 16.6717 -2.5162 -0.713476 -3.25904 -2.6696 0 9.6179 1.685 4.47115 -9.84571 -15.6691 0 17.8152 2.585 -6.11884e-016 0 -1.98785e-016 3.0676 6.4095 9.2836 -6.11884e-016 0 -1.98785e-016 -3.0676 6.4095 9.2835 -6.11884e-016 0 -1.98785e-016 4.5704 10.946 -2.628 -13.0054 4.46986 -5.46878 10.5924 -0.5246 -2.2321 -51.3129 23.4553 -31.2337 27.8415 -0.0001 0 -0.000180943 2.77781e-006 -13.9704 28.3288 -1.42109e-014 0 -2.3058 38.1364 -0.136085 2.4661 -1.575 2.6824 3.38477 -1.3001 1.82798 3.2298 -1.8647 1.8647 1.64376 6.9769 16.236 2.6526 -1.5315 1.5315 13.0168 -7.6001 0.373474 9.1093 -0.5171 2.2601 -17.5514 -0.587016 0.0799656 3.6764 7.10543e-015 7.10543e-015 -26.294 -0.605109 2.59025 2.8831 3.55271e-015 0 -23.5169 -0.485699 2.33306 9.5334 0 7.10543e-015 -23.9933 -1.40896 4.56341 3.6982 -7.10543e-015 -1.42109e-014 -26.3238 -0.606458 2.59298 2.9509 7.10543e-015 0 -23.224 -0.473838 2.30561 9.1045 -0.0439 -1.8651 -23.5063 -1.35235 9.02728 3.154 0 0 -26.4506 -0.612211 2.60458 2.9377 0 1.42109e-014 -23.0831 -0.468181 2.29238 8.0778 -0.4887 -3.8061 -23.159 -2.63936 11.0549 3.6 0 0 -26.4655 -0.612885 2.60593 2.1142 0 1.42109e-014 -29.3832 -0.75242 2.86922 -4.57 10.9462 -2.628 1.95883 3.14288 -0.944679 -10.5928 -0.5248 -2.2321 75.1 -19.7638 3.57473 -27.8415 -6.66134e-016 -3.55271e-015 2.22219e-005 6.17809e-006 15.3437 -28.3288 8.32667e-016 0.0001 1.35781 28.8687 -5.43069 -8.0767 -0.4885 -3.806 22.6621 -2.49817 -10.4543 -3.6 3.55271e-015 0.0001 26.5193 -0.487717 -2.07109 -2.1142 -1.42109e-014 0 29.4438 -0.599617 -2.28179 -9.1036 -0.0439 -1.8651 22.9543 -1.20068 -8.42577 -3.154 0 -1.77636e-015 26.5045 -0.487893 -2.07143 -2.9377 0 -1.77636e-015 23.1295 -0.373105 -1.8232 -9.5325 1.77636e-015 -8.88178e-016 23.3495 -1.24211 -3.95597 -3.6982 0 -1.77636e-015 26.3774 -0.483311 -2.06219 -2.9509 7.10543e-015 -8.88178e-016 23.2707 -0.377608 -1.83574 -9.1083 -0.5168 2.2601 16.8059 -0.47875 0.405504 -3.6764 3.55271e-015 -1.77636e-015 26.3475 -0.482234 -2.06002 -2.8831 -7.10543e-015 -8.88178e-016 23.5642 -0.387069 -1.85552 -2.4648 -1.5727 2.6826 -2.77512 -2.4589 0.133458 -3.2298 -1.8647 1.8647 -2.31613 7.57112 -17.9514 -2.6526 -1.5314 1.5314 -14.5098 -4.30707 -5.84443 8.2078 -6.7517 -1.5996 -12.991 -1.00523 7.51404 7.10543e-015 -44.3705 0.2846 0.290351 22.1954 3.55458 0 -44.4279 -2.9822 7.913 -16.0928 0.56269 0 -8.7287 10.7106 1.75845e-006 -0.988661 2.32364e-006 -8.2078 -6.7517 -1.5996 1.54958 -34.0223 -2.17752 7.10543e-015 -44.3705 0.2862 -0.901965 46.9648 -1.54908 -7.10543e-015 -44.4277 -2.9838 5.12164 4.1926 -6.44968 0 -8.7287 10.7106 -7.49736e-007 -0.732435 8.76171e-006 
